<?xml version="1.0" encoding="utf-8"?>
<!-- Generator: Adobe Illustrator 25.0.1, SVG Export Plug-In . SVG Version: 6.00 Build 0)  -->
<svg version="1.1" id="Layer_1" xmlns="http://www.w3.org/2000/svg" xmlns:xlink="http://www.w3.org/1999/xlink" x="0px" y="0px"
	 viewBox="0 0 1125 2436" style="enable-background:new 0 0 1125 2436;" xml:space="preserve">
<style type="text/css">
	.st0{fill:#442240;stroke:#442240;stroke-width:12;stroke-linecap:round;stroke-miterlimit:10;}
	.st1{fill:#EDEDED;stroke:#1D1D1B;stroke-linecap:round;stroke-miterlimit:10;}
	.st2{fill:#FFFFFF;}
</style>
<ellipse class="st0" cx="475" cy="766.6" rx="78" ry="71.4"/>
<path class="st1" d="M374.5,853.5"/>
<g>
	<g>
		<path class="st2" d="M468.9,799c15.9-22.6,31.8-45.2,47.7-67.7c4.5-6.3-5.9-12.3-10.4-6.1c-14.9,21.1-29.7,42.3-44.6,63.4
			c-4.5,6.3,5.9,12.3,10.4,6.1c14.9-21.1,29.7-42.3,44.6-63.4c-3.5-2-6.9-4-10.4-6.1c-15.9,22.6-31.8,45.2-47.7,67.7
			C454.1,799.3,464.5,805.3,468.9,799L468.9,799z"/>
	</g>
</g>
<g>
	<g>
		<path class="st2" d="M427.8,768.2c10.6,10.7,21.2,21.5,31.8,32.2c5.4,5.5,13.9-3,8.5-8.5c-10.6-10.7-21.2-21.5-31.8-32.2
			C430.8,754.2,422.3,762.7,427.8,768.2L427.8,768.2z"/>
	</g>
</g>
</svg>
