<?xml version="1.0" encoding="utf-8"?>
<!-- Generator: Adobe Illustrator 25.0.1, SVG Export Plug-In . SVG Version: 6.00 Build 0)  -->
<svg version="1.1" id="Layer_1" xmlns="http://www.w3.org/2000/svg" xmlns:xlink="http://www.w3.org/1999/xlink" x="0px" y="0px"
	 viewBox="0 0 1125 2436" style="enable-background:new 0 0 1125 2436;" xml:space="preserve">
<style type="text/css">
	.st0{fill:none;stroke:#1D1D1B;stroke-linecap:round;stroke-miterlimit:10;}
	.st1{fill:none;stroke:#000000;stroke-width:19;stroke-miterlimit:10;}
	.st2{fill:#FFFFFF;stroke:#000000;stroke-width:19;stroke-miterlimit:10;}
	.st3{fill:#42ADE2;}
	.st4{fill:#0085D1;}
	.st5{fill:none;stroke:#0085D1;stroke-width:9;stroke-miterlimit:10;}
	.st6{fill:none;stroke:#0085D1;stroke-width:6;stroke-linecap:round;stroke-miterlimit:10;}
	.st7{fill:#FFCE31;}
	.st8{fill:#C94747;}
	.st9{fill:#699635;}
</style>
<g>
	<path class="st0" d="M793,314.8"/>
	<g id="box">
		<path d="M394,228.1V173l3.9-1.9h305.3c3.9,0,7.5,0.2,10.8,0.5s6.3,0.8,8.8,1.4c2.5,0.6,4.5,1.3,6,2s2.2,1.6,2.2,2.5v45
			c0,0.9-0.7,1.7-2.1,2.5c-1.4,0.8-3.4,1.5-5.9,2.1s-5.4,1.1-8.8,1.4s-7,0.5-10.8,0.5H397.9L394,228.1z"/>
		<path class="st1" d="M163,440.7h848.3c33.6,0,61.1-27.5,61.1-61.1V230.3c0-33.6-27.5-61.1-61.1-61.1H163
			c-33.6,0-61.1,27.5-61.1,61.1v149.3C101.9,413.3,129.4,440.7,163,440.7z"/>
		<polyline class="st2" points="102,273.8 102,488.3 1072.5,488.3 1072.5,273.8 		"/>
	</g>
	<g>
		<g>
			<path d="M165.1,234.2c-2.6,1.4-5.8,2.1-9.7,2.1c-5,0-9-1.6-12-4.8s-4.5-7.4-4.5-12.6c0-5.6,1.7-10.1,5.1-13.6
				c3.4-3.4,7.6-5.2,12.8-5.2c3.3,0,6.1,0.5,8.3,1.4v4.4c-2.5-1.4-5.3-2.1-8.3-2.1c-4,0-7.3,1.3-9.8,4s-3.8,6.3-3.8,10.8
				c0,4.3,1.2,7.7,3.5,10.2s5.4,3.8,9.2,3.8c3.5,0,6.6-0.8,9.1-2.3L165.1,234.2L165.1,234.2z"/>
			<path d="M176.3,235.6h-4.1v-35h4.1V235.6z"/>
			<path d="M201.6,200.6v23.1h4.5v3.7h-4.5v8.2h-4v-8.2h-16.5v-3.5c1.5-1.7,3.1-3.6,4.6-5.5c1.6-2,3.1-3.9,4.5-6s2.7-4,4-6
				c1.2-2,2.2-3.9,3.1-5.8H201.6z M185.8,223.8h11.9v-17.1c-1.2,2.1-2.4,4-3.5,5.7s-2.1,3.2-3.1,4.6c-1,1.4-1.9,2.6-2.8,3.7
				C187.4,221.7,186.6,222.8,185.8,223.8z"/>
			<path d="M211.1,234.4V230c2.4,1.9,5.1,2.8,8.1,2.8c2.4,0,4.4-0.6,5.9-1.8s2.2-2.9,2.2-4.9c0-4.6-3.3-6.9-9.7-6.9h-2.9v-3.4h2.8
				c5.8,0,8.7-2.1,8.7-6.4c0-4-2.2-6-6.6-6c-2.5,0-4.8,0.8-7,2.5V202c2.3-1.3,4.9-2,8-2c2.9,0,5.3,0.8,7.1,2.3s2.6,3.6,2.6,6
				c0,4.6-2.3,7.6-7,8.9v0.1c2.5,0.2,4.5,1.1,6,2.6s2.2,3.4,2.2,5.7c0,3.1-1.1,5.7-3.4,7.6c-2.3,1.9-5.2,2.9-8.9,2.9
				C215.7,236.2,213,235.6,211.1,234.4z"/>
			<path d="M238.8,234.8v-4.3c2.4,1.6,4.8,2.3,7.3,2.3s4.5-0.7,6-2.1c1.5-1.4,2.3-3.3,2.3-5.6s-0.8-4.1-2.3-5.4s-3.8-1.9-6.6-1.9
				c-1,0-2.8,0.1-5.5,0.3v-17.6h16.9v3.6h-13.2v10.3c1.1-0.1,2.1-0.1,3-0.1c3.7,0,6.6,0.9,8.7,2.8c2.1,1.9,3.1,4.5,3.1,7.7
				c0,3.4-1.1,6.1-3.3,8.2c-2.2,2.1-5.2,3.1-9.1,3.1C242.8,236.2,240.4,235.8,238.8,234.8z"/>
		</g>
	</g>
</g>
<g id="phone_components">
	<g id="battery">
		<path d="M1016.8,236.7c0,1.1-0.3,2.1-0.8,3.1s-1.3,1.8-2.2,2.5s-2,1.3-3.3,1.7s-2.6,0.6-4.1,0.6h-62.3c-1.4,0-2.8-0.2-4-0.6
			s-2.3-1-3.3-1.7s-1.7-1.5-2.2-2.5s-0.8-2-0.8-3.1v-31.4c0-1.1,0.3-2.1,0.8-3.1s1.3-1.8,2.2-2.5s2-1.3,3.3-1.7s2.6-0.6,4-0.6h62.3
			c1.4,0,2.8,0.2,4,0.6s2.4,1,3.3,1.7s1.7,1.5,2.2,2.5c0.5,0.9,0.8,2,0.8,3L1016.8,236.7L1016.8,236.7z M1006.4,240.7
			c0.7,0,1.4-0.1,2-0.3s1.2-0.5,1.6-0.9c0.5-0.4,0.8-0.8,1.1-1.2c0.3-0.5,0.4-1,0.4-1.5v-31.4c0-0.6-0.1-1.1-0.4-1.5
			c-0.3-0.5-0.7-0.9-1.1-1.2c-0.5-0.4-1-0.6-1.6-0.8s-1.3-0.3-2-0.3h-62.3c-0.7,0-1.4,0.1-2,0.3s-1.2,0.5-1.6,0.8
			c-0.5,0.4-0.8,0.8-1.1,1.2c-0.3,0.5-0.4,1-0.4,1.5v31.4c0,0.6,0.1,1.1,0.4,1.5c0.3,0.5,0.6,0.9,1.1,1.2c0.5,0.4,1,0.6,1.6,0.9
			c0.6,0.2,1.3,0.3,2,0.3H1006.4z"/>
		<path d="M938.9,241.5v-39.7l0.6-1.4h51c0.6,0,1.3,0.1,1.8,0.4c0.6,0.2,1,0.6,1.5,1s0.8,0.9,1,1.5s0.4,1.2,0.4,1.8v32.4
			c0,0.6-0.1,1.3-0.3,1.8c-0.2,0.6-0.6,1.1-1,1.5s-0.9,0.8-1.5,1s-1.2,0.4-1.8,0.4h-51L938.9,241.5z"/>
		<path d="M1016.8,226.8v-13c0-2.5,2-4.5,4.5-4.5l0,0c2.5,0,4.5,2,4.5,4.5v13c0,2.5-2,4.5-4.5,4.5l0,0
			C1018.8,231.3,1016.8,229.2,1016.8,226.8z"/>
	</g>
	<g id="wifi">
		<g>
			<path d="M843.1,211.2c-0.3,2,0.1,4.1,1.1,5.3c1.3,1.6,2.9,1.1,3.1,1c2-3.8,10.8-20,23.6-25.4c3.6-1.5,7.4-2.3,11.3-2.3
				c14.4,0,27.2,10.9,34.8,27.6c0.2,0.1,1.8,0.7,3.1-0.9c1-1.3,1.5-3.4,1.1-5.4c-2.6-4.9-12-21.4-26-27.4c-4.1-1.8-8.5-2.7-13-2.7
				C866.1,181,851.9,192.9,843.1,211.2z"/>
			<path d="M882.2,208.6c11,0,20.6,9,25.8,22.4c1.4,1,3,0.5,4-1.2c0.8-1.4,0.9-3.5,0.3-5.2c-1.4-2.8-9.2-18-20.5-22.8
				c-3.1-1.3-6.3-2-9.6-2c-12.6,0-23.7,9.9-30.1,24.9c0,0.1-0.5,3,1,5.1c1.4,2,3.2,1.4,3.3,1.3C857.2,229.2,864,208.6,882.2,208.6z"
				/>
			<path d="M882.2,227c7.7,0,14.2,7.4,16.7,17.7c1.6,1,3.4,0.2,4.3-1.7c1-2.2,0.2-4.9,0.2-5c-1-2.9-3.4-9.4-8.6-14.3
				c-3.7-3.5-8-5.5-12.6-5.5c-9.3,0-17.3,8.1-21.2,19.9c-0.8,1.9-0.7,4.3,0.2,5.8c1,1.8,2.8,2.2,4.2,0.9
				C868.8,234.2,875.3,227,882.2,227z"/>
			<path class="st3" d="M1006,280"/>
			<path d="M861.2,244"/>
			<path d="M921.4,243"/>
			<path d="M918.8,247.8"/>
		</g>
	</g>
	<g id="signal">
		<g>
			<path d="M787.4,237.5v-33.2c0-9.5,18.8-9.5,18.8,0v33.2C806.2,247,787.4,247,787.4,237.5z"/>
			<path d="M765.2,237.3v-27.4c0-9.1,18.8-9.1,18.8,0v27.4C783.9,246.4,765.2,246.4,765.2,237.3z"/>
			<path d="M740.9,238.1v-18.3c0-7.3,18.8-7.3,18.8,0v18.3C759.7,245.4,740.9,245.4,740.9,238.1z"/>
			<path d="M809.2,235.9V198c0-10.8,18.8-10.8,18.8,0v37.9C827.9,246.7,809.2,246.7,809.2,235.9z"/>
		</g>
	</g>
</g>
<g id="back">
	<g>
		<path class="st4" d="M198.6,315.8c-11.9,8.7-23.3,18.2-33.9,28.5c-3.4,3.3-1.5,8.6,2.6,10c11.7,4,22.1,11.9,31.4,19.9
			c5.8,5,14.4-3.5,8.5-8.5c-10.9-9.4-22.9-18.3-36.7-23c0.9,3.3,1.8,6.7,2.6,10c9.9-9.6,20.3-18.5,31.4-26.6
			C210.9,321.7,204.9,311.3,198.6,315.8L198.6,315.8z"/>
	</g>
</g>
<g id="info">
	<ellipse id="circle" class="st5" cx="900.6" cy="345.9" rx="38.6" ry="35.9"/>
	<line id="I" class="st6" x1="900.9" y1="341.3" x2="900.5" y2="360.7"/>
	<ellipse id="dot" class="st4" cx="900.5" cy="329.3" rx="5.3" ry="4.9"/>
</g>
<g>
	<g>
		<path d="M521.4,440.7h-3.9V407h3.9V440.7z"/>
		<path d="M548.1,440.7h-17.8V407h17.1v3.6h-13.1v11.2h12.2v3.5h-12.2v11.8h13.9V440.7z"/>
		<path d="M579.6,407l-12.5,33.7h-4.3L550.5,407h4.4l9.3,26.7c0.3,0.9,0.5,1.9,0.7,3h0.1c0.1-0.9,0.4-1.9,0.8-3l9.5-26.7H579.6z"/>
		<path d="M610.5,440.7h-4.4l-3.6-9.4h-14.3l-3.4,9.4h-4.4l12.9-33.7h4.1L610.5,440.7z M601.2,427.7l-5.3-14.3
			c-0.2-0.5-0.3-1.2-0.5-2.3h-0.1c-0.2,1-0.3,1.7-0.5,2.3l-5.2,14.3H601.2z"/>
	</g>
</g>
<g id="FlagIeva">
	<g id="FlagIeva_1_">
		<g>
			<path class="st7" d="M559,255.7c-26.9,0-49.8,16.7-58.3,40.1h116.7C608.8,272.4,585.9,255.7,559,255.7z"/>
			<path class="st8" d="M559,375.9c26.9,0,49.8-16.7,58.3-40.1H500.7C509.2,359.2,532.1,375.9,559,375.9z"/>
			<path class="st9" d="M500.7,295.8c-2.3,6.3-3.5,13-3.5,20c0,7,1.3,13.8,3.5,20h116.7c2.3-6.3,3.5-13,3.5-20c0-7-1.3-13.8-3.5-20
				H500.7z"/>
		</g>
	</g>
</g>
</svg>
