<?xml version="1.0" encoding="utf-8"?>
<!-- Generator: Adobe Illustrator 25.0.0, SVG Export Plug-In . SVG Version: 6.00 Build 0)  -->
<svg version="1.1" id="Layer_1" xmlns="http://www.w3.org/2000/svg" xmlns:xlink="http://www.w3.org/1999/xlink" x="0px" y="0px"
	 viewBox="0 0 1125 2436" style="enable-background:new 0 0 1125 2436;" xml:space="preserve">
<style type="text/css">
	.st0{fill:none;stroke:#1D1D1B;stroke-linecap:round;stroke-miterlimit:10;}
	.st1{fill:none;stroke:#000000;stroke-width:19;stroke-miterlimit:10;}
	.st2{fill:#FFFFFF;stroke:#000000;stroke-width:19;stroke-miterlimit:10;}
	.st3{fill:#42ADE2;}
	.st4{display:none;}
	.st5{display:inline;}
	.st6{fill:#F9F9F9;}
	.st7{fill:#ED4C5C;}
	.st8{fill:#428BC1;}
	.st9{fill:#F42F4C;}
	.st10{fill:#FFE62E;}
	.st11{fill:#0065BF;}
	.st12{fill:#FFFFFF;stroke:#FFFFFF;stroke-miterlimit:10;}
	.st13{fill:#F5F5F5;}
	.st14{fill:#0085D1;}
	.st15{fill:none;stroke:#0085D1;stroke-width:9;stroke-miterlimit:10;}
	.st16{fill:none;stroke:#0085D1;stroke-width:6;stroke-linecap:round;stroke-miterlimit:10;}
</style>
<g>
	<path class="st0" d="M792.98,314.75"/>
	<g id="box">
		<path d="M394,228.15l0-55.1l3.86-1.92l305.33,0c3.86,0,7.46,0.16,10.81,0.49c3.35,0.33,6.28,0.78,8.79,1.37
			c2.51,0.58,4.51,1.26,5.99,2.04c1.48,0.78,2.22,1.61,2.22,2.51l0,44.98c0,0.9-0.71,1.73-2.12,2.51c-1.42,0.78-3.38,1.46-5.89,2.06
			c-2.51,0.6-5.44,1.07-8.79,1.41c-3.35,0.34-6.95,0.51-10.81,0.51l-305.52,0L394,228.15z"/>
		<path class="st1" d="M162.98,440.74h848.34c33.59,0,61.07-27.48,61.07-61.07V230.34c0-33.59-27.48-61.07-61.07-61.07H162.98
			c-33.59,0-61.07,27.48-61.07,61.07v149.32C101.91,413.25,129.4,440.74,162.98,440.74z"/>
		<polyline class="st2" points="102,273.81 102,488.25 1072.48,488.25 1072.48,273.81 		"/>
	</g>
	<g>
		<g>
			<path d="M165.05,234.18c-2.59,1.37-5.81,2.05-9.67,2.05c-4.98,0-8.97-1.6-11.96-4.81c-3-3.21-4.49-7.41-4.49-12.62
				c0-5.6,1.68-10.12,5.05-13.57c3.37-3.45,7.64-5.18,12.82-5.18c3.32,0,6.07,0.48,8.25,1.44v4.37c-2.51-1.4-5.27-2.1-8.3-2.1
				c-4.02,0-7.28,1.34-9.78,4.03c-2.5,2.69-3.75,6.27-3.75,10.77c0,4.26,1.17,7.66,3.5,10.19c2.34,2.53,5.4,3.8,9.19,3.8
				c3.52,0,6.56-0.78,9.13-2.34V234.18z"/>
			<path d="M176.29,235.64h-4.1v-35.01h4.1V235.64z"/>
			<path d="M201.65,200.63v23.12h4.49v3.66h-4.49v8.23h-3.96v-8.23h-16.46v-3.47c1.53-1.73,3.08-3.57,4.64-5.53
				c1.56-1.96,3.06-3.95,4.48-5.97c1.42-2.02,2.74-4.03,3.96-6.04c1.21-2.01,2.23-3.93,3.06-5.77H201.65z M185.76,223.75h11.94
				v-17.14c-1.22,2.13-2.38,4.04-3.47,5.71c-1.09,1.68-2.13,3.2-3.11,4.57c-0.98,1.37-1.92,2.6-2.82,3.71
				C187.4,221.71,186.56,222.76,185.76,223.75z"/>
			<path d="M211.05,234.35v-4.32c2.39,1.89,5.09,2.83,8.11,2.83c2.44,0,4.39-0.61,5.85-1.83c1.46-1.22,2.19-2.86,2.19-4.93
				c0-4.57-3.25-6.86-9.74-6.86h-2.91v-3.39h2.76c5.78,0,8.67-2.15,8.67-6.45c0-3.97-2.21-5.96-6.62-5.96
				c-2.46,0-4.78,0.84-6.96,2.51v-3.91c2.25-1.33,4.9-2,7.96-2c2.95,0,5.3,0.78,7.07,2.34c1.77,1.56,2.65,3.56,2.65,6.01
				c0,4.61-2.34,7.57-7.03,8.89v0.1c2.52,0.24,4.53,1.13,6.02,2.65c1.49,1.52,2.23,3.42,2.23,5.7c0,3.14-1.13,5.68-3.38,7.6
				c-2.25,1.93-5.23,2.89-8.92,2.89C215.67,236.23,213.02,235.6,211.05,234.35z"/>
			<path d="M238.81,234.79v-4.25c2.39,1.55,4.83,2.32,7.3,2.32c2.47,0,4.47-0.7,5.98-2.1c1.51-1.4,2.27-3.25,2.27-5.57
				c0-2.29-0.77-4.08-2.32-5.37c-1.55-1.29-3.76-1.93-6.64-1.93c-0.98,0-2.81,0.1-5.49,0.29v-17.55h16.94v3.61h-13.16v10.25
				c1.07-0.06,2.07-0.1,2.98-0.1c3.74,0,6.64,0.94,8.69,2.82s3.08,4.46,3.08,7.73c0,3.39-1.1,6.11-3.31,8.18
				c-2.21,2.07-5.23,3.1-9.07,3.1C242.82,236.23,240.4,235.75,238.81,234.79z"/>
		</g>
	</g>
</g>
<g>
	<g>
		<path d="M500.95,434.98H482.4v-35.01h17.77v3.71H486.5v11.65h12.65v3.69H486.5v12.26h14.45V434.98z"/>
		<path d="M543.38,434.98h-4.08v-23.49c0-1.86,0.11-4.13,0.34-6.81h-0.1c-0.39,1.58-0.74,2.71-1.05,3.39l-11.96,26.9h-2
			l-11.94-26.71c-0.34-0.78-0.69-1.98-1.05-3.59h-0.1c0.13,1.4,0.2,3.69,0.2,6.86v23.44h-3.96v-35.01h5.42l10.74,24.41
			c0.83,1.87,1.37,3.27,1.61,4.2h0.15c0.7-1.92,1.26-3.35,1.68-4.3l10.96-24.32h5.13V434.98z"/>
		<path d="M588.28,434.98h-4.08v-23.49c0-1.86,0.11-4.13,0.34-6.81h-0.1c-0.39,1.58-0.74,2.71-1.05,3.39l-11.96,26.9h-2
			l-11.94-26.71c-0.34-0.78-0.69-1.98-1.05-3.59h-0.1c0.13,1.4,0.2,3.69,0.2,6.86v23.44h-3.96v-35.01h5.42l10.74,24.41
			c0.83,1.87,1.37,3.27,1.61,4.2h0.15c0.7-1.92,1.26-3.35,1.68-4.3l10.96-24.32h5.13V434.98z"/>
		<path d="M624.58,434.98h-4.54l-3.71-9.81h-14.84l-3.49,9.81h-4.57l13.43-35.01h4.25L624.58,434.98z M614.99,421.48l-5.49-14.92
			c-0.18-0.49-0.36-1.27-0.54-2.34h-0.1c-0.16,0.99-0.35,1.77-0.56,2.34l-5.44,14.92H614.99z"/>
	</g>
</g>
<g id="phone_components">
	<g id="battery">
		<path d="M1016.75,236.72c0,1.09-0.27,2.12-0.81,3.08s-1.28,1.79-2.22,2.5s-2.04,1.27-3.3,1.68s-2.62,0.62-4.06,0.62l-62.27,0
			c-1.42,0-2.76-0.21-4.01-0.63c-1.25-0.42-2.35-0.98-3.28-1.7s-1.68-1.54-2.24-2.5c-0.55-0.96-0.83-1.97-0.83-3.05v-31.45
			c0-1.08,0.27-2.09,0.81-3.05s1.28-1.79,2.22-2.5s2.04-1.27,3.3-1.68s2.61-0.62,4.02-0.62l62.27,0c1.42,0,2.76,0.21,4.02,0.63
			c1.26,0.42,2.36,0.98,3.3,1.7s1.68,1.54,2.24,2.49c0.55,0.95,0.83,1.96,0.83,3.04V236.72z M1006.36,240.66
			c0.72,0,1.4-0.1,2.02-0.31c0.63-0.21,1.17-0.49,1.64-0.85c0.47-0.36,0.84-0.77,1.12-1.24c0.28-0.47,0.42-0.98,0.42-1.53v-31.45
			c0-0.55-0.14-1.06-0.42-1.53c-0.28-0.47-0.65-0.89-1.12-1.24c-0.47-0.36-1.02-0.63-1.64-0.83c-0.63-0.2-1.3-0.3-2.02-0.3l-62.27,0
			c-0.72,0-1.4,0.1-2.02,0.3c-0.63,0.2-1.17,0.48-1.64,0.83c-0.47,0.36-0.84,0.77-1.1,1.24c-0.26,0.47-0.4,0.98-0.4,1.53v31.45
			c0,0.55,0.13,1.06,0.4,1.53c0.26,0.47,0.63,0.89,1.1,1.24c0.47,0.36,1.02,0.64,1.64,0.85c0.63,0.21,1.3,0.31,2.02,0.31
			L1006.36,240.66z"/>
		<path d="M938.87,241.54v-39.67l0.64-1.39l50.95,0c0.64,0,1.25,0.12,1.8,0.35c0.56,0.24,1.05,0.56,1.47,0.98s0.75,0.91,1,1.47
			c0.25,0.56,0.37,1.16,0.37,1.8v32.39c0,0.64-0.12,1.25-0.35,1.8c-0.24,0.56-0.56,1.05-0.98,1.48s-0.91,0.77-1.47,1.02
			c-0.56,0.25-1.16,0.37-1.8,0.37l-50.98,0L938.87,241.54z"/>
		<path d="M1016.75,226.77v-13c0-2.48,2.02-4.5,4.5-4.5l0,0c2.47,0,4.5,2.02,4.5,4.5v13c0,2.48-2.02,4.5-4.5,4.5l0,0
			C1018.78,231.27,1016.75,229.24,1016.75,226.77z"/>
	</g>
	<g id="wifi">
		<g>
			<path d="M843.1,211.16c-0.32,2,0.12,4.08,1.13,5.34c1.3,1.62,2.89,1.07,3.06,1c1.98-3.81,10.76-19.99,23.57-25.35
				c3.6-1.51,7.39-2.31,11.3-2.31c14.41,0,27.16,10.92,34.83,27.56c0.15,0.06,1.78,0.74,3.11-0.9c1.03-1.27,1.46-3.42,1.08-5.44
				c-2.64-4.95-12-21.44-26.01-27.37c-4.14-1.75-8.5-2.69-13.01-2.69C866.12,181,851.88,192.9,843.1,211.16z"/>
			<path d="M882.16,208.64c10.99,0,20.61,8.99,25.83,22.35c1.4,1.03,3.05,0.48,3.95-1.22c0.76-1.43,0.88-3.48,0.3-5.2
				c-1.41-2.82-9.2-18.04-20.47-22.79c-3.06-1.29-6.29-1.98-9.62-1.98c-12.62,0-23.74,9.92-30.13,24.87
				c-0.02,0.13-0.45,3.03,0.97,5.1c1.36,1.99,3.16,1.37,3.28,1.33C857.19,229.2,863.98,208.64,882.16,208.64z"/>
			<path d="M882.16,227.04c7.68,0,14.24,7.38,16.74,17.71c1.62,1.01,3.42,0.22,4.27-1.72c0.99-2.23,0.21-4.85,0.17-5
				c-0.95-2.88-3.43-9.41-8.57-14.32c-3.65-3.49-7.97-5.52-12.61-5.52c-9.29,0-17.34,8.14-21.21,19.95
				c-0.78,1.86-0.69,4.25,0.21,5.84c1.01,1.8,2.84,2.22,4.24,0.89C868.83,234.2,875.31,227.04,882.16,227.04z"/>
			<path class="st3" d="M1006,280"/>
			<path d="M861.16,243.98"/>
			<path d="M921.36,243.04"/>
			<path d="M918.85,247.78"/>
		</g>
	</g>
	<g id="signal">
		<g>
			<path d="M787.42,237.54v-33.16c0-9.47,18.75-9.47,18.75,0v33.16C806.17,247.02,787.42,247.02,787.42,237.54z"/>
			<path d="M765.17,237.28v-27.41c0-9.14,18.75-9.14,18.75,0v27.41C783.92,246.42,765.17,246.42,765.17,237.28z"/>
			<path d="M740.92,238.1v-18.3c0-7.32,18.75-7.32,18.75,0v18.3C759.67,245.42,740.92,245.42,740.92,238.1z"/>
			<path d="M809.18,235.85v-37.86c0-10.82,18.75-10.82,18.75,0v37.86C827.93,246.67,809.18,246.67,809.18,235.85z"/>
		</g>
	</g>
</g>
<g id="FlagEmma">
	<g id="scotland">
		<g>
			<path class="st11" d="M541.84,257.53c1.21-0.08,2.44-0.12,3.67-0.12"/>
			<path class="st11" d="M545.51,257.41c30.81,0,55.78,24.97,55.78,55.78s-24.97,55.78-55.78,55.78"/>
		</g>
		<g>
			<polygon class="st12" points="601.29,274.35 585.36,258.41 545.51,298.26 505.67,258.41 489.73,274.35 529.57,314.19 
				489.73,354.04 505.67,369.97 545.51,330.13 585.36,369.97 601.29,354.04 561.45,314.19 			"/>
		</g>
	</g>
	<g id="japan">
		<path class="st13" d="M548,369.97c-30.81,0-55.78-25.29-55.78-56.49S517.19,257,548,257"/>
		<path class="st13" d="M548,257c1.15,0,2.29,0.04,3.42,0.1"/>
		<path class="st7" d="M548,336.08c-12.32,0-22.31-10.12-22.31-22.59c0-12.48,9.99-22.59,22.31-22.59"/>
		<path class="st7" d="M548,290.89"/>
	</g>
</g>
<g id="back">
	<g>
		<path class="st14" d="M198.63,315.82c-11.94,8.72-23.27,18.18-33.87,28.5c-3.39,3.3-1.52,8.63,2.65,10.03
			c11.72,3.95,22.06,11.93,31.35,19.89c5.84,5,14.36-3.45,8.49-8.49c-10.95-9.38-22.85-18.33-36.65-22.98
			c0.88,3.34,1.77,6.69,2.65,10.03c9.86-9.6,20.32-18.51,31.44-26.63C210.86,321.67,204.88,311.26,198.63,315.82L198.63,315.82z"/>
	</g>
</g>
<g id="info">
	<ellipse id="circle" class="st15" cx="900.57" cy="345.87" rx="38.57" ry="35.87"/>
	<line id="I" class="st16" x1="900.88" y1="341.33" x2="900.48" y2="360.71"/>
	<ellipse id="dot" class="st14" cx="900.5" cy="329.31" rx="5.31" ry="4.94"/>
</g>
</svg>
