<?xml version="1.0" encoding="utf-8"?>
<!-- Generator: Adobe Illustrator 25.0.1, SVG Export Plug-In . SVG Version: 6.00 Build 0)  -->
<svg version="1.1" id="Layer_1" xmlns="http://www.w3.org/2000/svg" xmlns:xlink="http://www.w3.org/1999/xlink" x="0px" y="0px"
	 viewBox="0 0 1125 2436" style="enable-background:new 0 0 1125 2436;" xml:space="preserve">
<style type="text/css">
	.st0{fill:none;stroke:#1D1D1B;stroke-linecap:round;stroke-miterlimit:10;}
	.st1{fill:none;stroke:#000000;stroke-width:19;stroke-miterlimit:10;}
	.st2{fill:#FFFFFF;stroke:#000000;stroke-width:19;stroke-miterlimit:10;}
	.st3{fill:#42ADE2;}
	.st4{fill:#F9F9F9;}
	.st5{fill:#ED4C5C;}
	.st6{fill:#428BC1;}
	.st7{fill:#F42F4C;}
	.st8{fill:#FFE62E;}
	.st9{fill:#0065BF;}
	.st10{fill:#FFFFFF;stroke:#FFFFFF;stroke-miterlimit:10;}
	.st11{fill:#F5F5F5;}
	.st12{fill:#0085D1;}
	.st13{fill:none;stroke:#0085D1;stroke-width:9;stroke-miterlimit:10;}
	.st14{fill:none;stroke:#0085D1;stroke-width:6;stroke-linecap:round;stroke-miterlimit:10;}
	.st15{fill:#C94747;}
	.st16{fill:#2A5F9E;}
	.st17{fill:#699635;}
	.st18{fill:#83BF4F;}
	.st19{fill:#FFFFFF;}
	.st20{fill:#002D62;}
	.st21{fill:#CE1126;}
	.st22{fill:#EAC102;}
	.st23{fill:#201B18;}
	.st24{fill:#C9C9C9;}
	.st25{fill:none;}
</style>
<g>
	<path class="st0" d="M793,314.8"/>
	<g id="box">
		<path d="M394,228.1V173l3.9-1.9h305.3c3.9,0,7.5,0.2,10.8,0.5s6.3,0.8,8.8,1.4c2.5,0.6,4.5,1.3,6,2s2.2,1.6,2.2,2.5v45
			c0,0.9-0.7,1.7-2.1,2.5c-1.4,0.8-3.4,1.5-5.9,2.1c-2.5,0.6-5.4,1.1-8.8,1.4s-7,0.5-10.8,0.5H397.9L394,228.1z"/>
		<path class="st1" d="M163,440.7h848.3c33.6,0,61.1-27.5,61.1-61.1V230.3c0-33.6-27.5-61.1-61.1-61.1H163
			c-33.6,0-61.1,27.5-61.1,61.1v149.3C101.9,413.3,129.4,440.7,163,440.7z"/>
		<polyline class="st2" points="102,273.8 102,488.3 1072.5,488.3 1072.5,273.8 		"/>
	</g>
	<g>
		<g>
			<path d="M165.1,234.2c-2.6,1.4-5.8,2.1-9.7,2.1c-5,0-9-1.6-12-4.8c-3-3.2-4.5-7.4-4.5-12.6c0-5.6,1.7-10.1,5.1-13.6
				c3.4-3.4,7.6-5.2,12.8-5.2c3.3,0,6.1,0.5,8.3,1.4v4.4c-2.5-1.4-5.3-2.1-8.3-2.1c-4,0-7.3,1.3-9.8,4s-3.8,6.3-3.8,10.8
				c0,4.3,1.2,7.7,3.5,10.2c2.3,2.5,5.4,3.8,9.2,3.8c3.5,0,6.6-0.8,9.1-2.3L165.1,234.2L165.1,234.2z"/>
			<path d="M176.3,235.6h-4.1v-35h4.1V235.6z"/>
			<path d="M201.6,200.6v23.1h4.5v3.7h-4.5v8.2h-4v-8.2h-16.5v-3.5c1.5-1.7,3.1-3.6,4.6-5.5c1.6-2,3.1-3.9,4.5-6s2.7-4,4-6
				c1.2-2,2.2-3.9,3.1-5.8H201.6z M185.8,223.8h11.9v-17.1c-1.2,2.1-2.4,4-3.5,5.7c-1.1,1.7-2.1,3.2-3.1,4.6c-1,1.4-1.9,2.6-2.8,3.7
				C187.4,221.7,186.6,222.8,185.8,223.8z"/>
			<path d="M211.1,234.4V230c2.4,1.9,5.1,2.8,8.1,2.8c2.4,0,4.4-0.6,5.9-1.8s2.2-2.9,2.2-4.9c0-4.6-3.3-6.9-9.7-6.9h-2.9v-3.4h2.8
				c5.8,0,8.7-2.1,8.7-6.4c0-4-2.2-6-6.6-6c-2.5,0-4.8,0.8-7,2.5V202c2.3-1.3,4.9-2,8-2c2.9,0,5.3,0.8,7.1,2.3s2.6,3.6,2.6,6
				c0,4.6-2.3,7.6-7,8.9v0.1c2.5,0.2,4.5,1.1,6,2.6c1.5,1.5,2.2,3.4,2.2,5.7c0,3.1-1.1,5.7-3.4,7.6c-2.3,1.9-5.2,2.9-8.9,2.9
				C215.7,236.2,213,235.6,211.1,234.4z"/>
			<path d="M238.8,234.8v-4.3c2.4,1.6,4.8,2.3,7.3,2.3s4.5-0.7,6-2.1c1.5-1.4,2.3-3.3,2.3-5.6c0-2.3-0.8-4.1-2.3-5.4
				s-3.8-1.9-6.6-1.9c-1,0-2.8,0.1-5.5,0.3v-17.6h16.9v3.6h-13.2v10.3c1.1-0.1,2.1-0.1,3-0.1c3.7,0,6.6,0.9,8.7,2.8s3.1,4.5,3.1,7.7
				c0,3.4-1.1,6.1-3.3,8.2c-2.2,2.1-5.2,3.1-9.1,3.1C242.8,236.2,240.4,235.8,238.8,234.8z"/>
		</g>
	</g>
</g>
<g id="phone_components">
	<g id="battery">
		<path d="M1016.8,236.7c0,1.1-0.3,2.1-0.8,3.1s-1.3,1.8-2.2,2.5s-2,1.3-3.3,1.7s-2.6,0.6-4.1,0.6h-62.3c-1.4,0-2.8-0.2-4-0.6
			s-2.3-1-3.3-1.7s-1.7-1.5-2.2-2.5c-0.5-1-0.8-2-0.8-3.1v-31.4c0-1.1,0.3-2.1,0.8-3.1s1.3-1.8,2.2-2.5s2-1.3,3.3-1.7s2.6-0.6,4-0.6
			h62.3c1.4,0,2.8,0.2,4,0.6s2.4,1,3.3,1.7s1.7,1.5,2.2,2.5c0.5,0.9,0.8,2,0.8,3L1016.8,236.7L1016.8,236.7z M1006.4,240.7
			c0.7,0,1.4-0.1,2-0.3c0.6-0.2,1.2-0.5,1.6-0.9c0.5-0.4,0.8-0.8,1.1-1.2c0.3-0.5,0.4-1,0.4-1.5v-31.4c0-0.6-0.1-1.1-0.4-1.5
			c-0.3-0.5-0.7-0.9-1.1-1.2c-0.5-0.4-1-0.6-1.6-0.8c-0.6-0.2-1.3-0.3-2-0.3h-62.3c-0.7,0-1.4,0.1-2,0.3c-0.6,0.2-1.2,0.5-1.6,0.8
			c-0.5,0.4-0.8,0.8-1.1,1.2c-0.3,0.5-0.4,1-0.4,1.5v31.4c0,0.6,0.1,1.1,0.4,1.5c0.3,0.5,0.6,0.9,1.1,1.2c0.5,0.4,1,0.6,1.6,0.9
			c0.6,0.2,1.3,0.3,2,0.3H1006.4z"/>
		<path d="M938.9,241.5v-39.7l0.6-1.4h51c0.6,0,1.3,0.1,1.8,0.4c0.6,0.2,1,0.6,1.5,1s0.8,0.9,1,1.5s0.4,1.2,0.4,1.8v32.4
			c0,0.6-0.1,1.3-0.3,1.8c-0.2,0.6-0.6,1.1-1,1.5s-0.9,0.8-1.5,1s-1.2,0.4-1.8,0.4h-51L938.9,241.5z"/>
		<path d="M1016.8,226.8v-13c0-2.5,2-4.5,4.5-4.5l0,0c2.5,0,4.5,2,4.5,4.5v13c0,2.5-2,4.5-4.5,4.5l0,0
			C1018.8,231.3,1016.8,229.2,1016.8,226.8z"/>
	</g>
	<g id="wifi">
		<g>
			<path d="M843.1,211.2c-0.3,2,0.1,4.1,1.1,5.3c1.3,1.6,2.9,1.1,3.1,1c2-3.8,10.8-20,23.6-25.4c3.6-1.5,7.4-2.3,11.3-2.3
				c14.4,0,27.2,10.9,34.8,27.6c0.2,0.1,1.8,0.7,3.1-0.9c1-1.3,1.5-3.4,1.1-5.4c-2.6-4.9-12-21.4-26-27.4c-4.1-1.8-8.5-2.7-13-2.7
				C866.1,181,851.9,192.9,843.1,211.2z"/>
			<path d="M882.2,208.6c11,0,20.6,9,25.8,22.4c1.4,1,3,0.5,4-1.2c0.8-1.4,0.9-3.5,0.3-5.2c-1.4-2.8-9.2-18-20.5-22.8
				c-3.1-1.3-6.3-2-9.6-2c-12.6,0-23.7,9.9-30.1,24.9c0,0.1-0.5,3,1,5.1c1.4,2,3.2,1.4,3.3,1.3C857.2,229.2,864,208.6,882.2,208.6z"
				/>
			<path d="M882.2,227c7.7,0,14.2,7.4,16.7,17.7c1.6,1,3.4,0.2,4.3-1.7c1-2.2,0.2-4.9,0.2-5c-1-2.9-3.4-9.4-8.6-14.3
				c-3.7-3.5-8-5.5-12.6-5.5c-9.3,0-17.3,8.1-21.2,19.9c-0.8,1.9-0.7,4.3,0.2,5.8c1,1.8,2.8,2.2,4.2,0.9
				C868.8,234.2,875.3,227,882.2,227z"/>
			<path class="st3" d="M1006,280"/>
			<path d="M861.2,244"/>
			<path d="M921.4,243"/>
			<path d="M918.8,247.8"/>
		</g>
	</g>
	<g id="signal">
		<g>
			<path d="M787.4,237.5v-33.2c0-9.5,18.8-9.5,18.8,0v33.2C806.2,247,787.4,247,787.4,237.5z"/>
			<path d="M765.2,237.3v-27.4c0-9.1,18.8-9.1,18.8,0v27.4C783.9,246.4,765.2,246.4,765.2,237.3z"/>
			<path d="M740.9,238.1v-18.3c0-7.3,18.8-7.3,18.8,0v18.3C759.7,245.4,740.9,245.4,740.9,238.1z"/>
			<path d="M809.2,235.9V198c0-10.8,18.8-10.8,18.8,0v37.9C827.9,246.7,809.2,246.7,809.2,235.9z"/>
		</g>
	</g>
</g>

<g id="back">
	<g>
		<path class="st12" d="M198.6,315.8c-11.9,8.7-23.3,18.2-33.9,28.5c-3.4,3.3-1.5,8.6,2.6,10c11.7,4,22.1,11.9,31.4,19.9
			c5.8,5,14.4-3.5,8.5-8.5c-10.9-9.4-22.9-18.3-36.7-23c0.9,3.3,1.8,6.7,2.6,10c9.9-9.6,20.3-18.5,31.4-26.6
			C210.9,321.7,204.9,311.3,198.6,315.8L198.6,315.8z"/>
	</g>
</g>
<g id="info">
	<ellipse id="circle" class="st13" cx="900.6" cy="345.9" rx="38.6" ry="35.9"/>
	<line id="I" class="st14" x1="900.9" y1="341.3" x2="900.5" y2="360.7"/>
	<ellipse id="dot" class="st12" cx="900.5" cy="329.3" rx="5.3" ry="4.9"/>
</g>
<g>
	<g>
		<path d="M478.3,414.7c0,4.1-0.9,7.2-2.6,9.5c-1.7,2.3-4,3.4-6.9,3.4c-1.3,0-2.4-0.2-3.3-0.6v-4c0.9,0.6,2,0.9,3.3,0.9
			c3.6,0,5.4-3.1,5.4-9.2v-22.1h4V414.7z"/>
		<path d="M505.1,427H487v-34.3h17.4v3.6H491v11.4h12.4v3.6H491v12h14.2V427z"/>
		<path d="M536.3,427h-4.8l-5.7-9.6c-0.5-0.9-1-1.7-1.5-2.3c-0.5-0.6-1-1.1-1.5-1.5c-0.5-0.4-1.1-0.7-1.7-0.9
			c-0.6-0.2-1.3-0.3-2-0.3h-3.3V427h-4v-34.3H522c1.5,0,2.9,0.2,4.2,0.6c1.3,0.4,2.4,0.9,3.3,1.7c0.9,0.8,1.7,1.7,2.2,2.9
			c0.5,1.1,0.8,2.5,0.8,4c0,1.2-0.2,2.3-0.5,3.3c-0.4,1-0.9,1.9-1.5,2.7c-0.7,0.8-1.5,1.4-2.4,2c-0.9,0.6-2,1-3.1,1.3v0.1
			c0.6,0.3,1.1,0.5,1.5,0.9c0.4,0.3,0.8,0.7,1.2,1.2c0.4,0.4,0.8,1,1.1,1.5c0.4,0.6,0.8,1.2,1.3,2L536.3,427z M515.8,396.3v12.4h5.5
			c1,0,1.9-0.2,2.8-0.5c0.9-0.3,1.6-0.7,2.2-1.3c0.6-0.6,1.1-1.3,1.5-2.1c0.4-0.8,0.5-1.7,0.5-2.8c0-1.8-0.6-3.3-1.8-4.3
			c-1.2-1-2.9-1.5-5.2-1.5H515.8z"/>
		<path d="M567.6,427h-4.5l-3.6-9.6H545l-3.4,9.6h-4.5l13.2-34.3h4.2L567.6,427z M558.2,413.7l-5.4-14.6c-0.2-0.5-0.4-1.2-0.5-2.3
			h-0.1c-0.2,1-0.3,1.7-0.6,2.3l-5.3,14.6H558.2z"/>
		<path d="M607.6,427h-4v-23c0-1.8,0.1-4,0.3-6.7h-0.1c-0.4,1.5-0.7,2.7-1,3.3L591.1,427h-2l-11.7-26.2c-0.3-0.8-0.7-1.9-1-3.5h-0.1
			c0.1,1.4,0.2,3.6,0.2,6.7v23h-3.9v-34.3h5.3l10.5,23.9c0.8,1.8,1.3,3.2,1.6,4.1h0.1c0.7-1.9,1.2-3.3,1.7-4.2l10.7-23.8h5V427z"/>
		<path d="M634.9,427h-18.2v-34.3h17.4v3.6h-13.4v11.4h12.4v3.6h-12.4v12h14.2V427z"/>
		<path d="M659.3,427h-17.8v-34.3h4v30.7h13.8V427z"/>
	</g>
</g>
<g id="FlagJeramel">
	<g id="FlagJeramel_1_">
		<g>
			<path class="st15" d="M573.8,250.7v44.2h44.2C613.6,272.7,596.1,255.2,573.8,250.7z"/>
			<path class="st15" d="M551.2,361.9v-44.2h-44.2C511.4,339.9,528.9,357.4,551.2,361.9z"/>
			<path class="st16" d="M573.8,317.6v44.2c22.2-4.5,39.7-22,44.2-44.2H573.8z"/>
			<path class="st16" d="M506.9,294.9h44.2v-44.2C528.9,255.2,511.4,272.7,506.9,294.9z"/>
			<path class="st4" d="M618.1,294.9h-44.2v-44.2c-3.7-0.7-7.5-1.1-11.3-1.1s-7.7,0.4-11.3,1.1v44.2h-44.2
				c-0.7,3.7-1.1,7.5-1.1,11.3s0.4,7.7,1.1,11.3h44.2v44.2c3.7,0.7,7.5,1.1,11.3,1.1s7.7-0.4,11.3-1.1v-44.2h44.2
				c0.7-3.7,1.1-7.5,1.1-11.3S618.8,298.6,618.1,294.9z"/>
			<path class="st17" d="M556.8,301.2c0,0-0.8-0.2-1.4-0.2l0,0c0.5-0.8,0.7-2.2,0.7-2.2s-1.2,0.7-1.7,1.5c-0.3-0.6-0.7-1.1-0.7-1.1
				s-0.6,0.7-0.5,1.3c0.1,0.6,0.9,1.6,0.9,1.6s1.2,0.3,1.8,0.2C556.4,302,556.8,301.2,556.8,301.2z"/>
			<path class="st18" d="M555.7,303.1c0,0-0.8,0-1.4,0.2l0,0c0.3-0.9,0.1-2.3,0.1-2.3s-1,1-1.3,1.9c-0.4-0.5-1-0.9-1-0.9
				s-0.4,0.8-0.1,1.4c0.3,0.6,1.3,1.3,1.3,1.3s1.2,0,1.8-0.3C555.5,303.9,555.7,303.1,555.7,303.1z"/>
			<path class="st17" d="M555,305.1c0,0-0.8,0.2-1.3,0.5l0,0c0-0.9-0.5-2.2-0.5-2.2s-0.7,1.2-0.8,2.1c-0.5-0.3-1.2-0.6-1.2-0.6
				s-0.2,0.9,0.2,1.4c0.4,0.5,1.6,0.9,1.6,0.9s1.2-0.3,1.7-0.8C555.1,306,555,305.1,555,305.1z"/>
			<path class="st18" d="M555,307.3c0,0-0.7,0.4-1.2,0.8l0,0c-0.2-0.9-1.1-2-1.1-2s-0.4,1.4-0.2,2.3c-0.6-0.2-1.3-0.3-1.3-0.3
				s0.1,0.9,0.6,1.3c0.5,0.4,1.8,0.5,1.8,0.5s1.1-0.6,1.4-1.2C555.3,308.1,555,307.3,555,307.3z"/>
			<path class="st17" d="M555.5,309.4c0,0-0.6,0.6-0.9,1.1l0,0c-0.4-0.8-1.6-1.7-1.6-1.7s0,1.4,0.4,2.2c-0.6-0.1-1.3,0.1-1.3,0.1
				s0.3,0.8,0.9,1.1c0.6,0.2,1.8,0,1.8,0s0.9-0.9,1.1-1.5C556,310.1,555.5,309.4,555.5,309.4z"/>
			<path class="st18" d="M556.5,311.3c0,0-0.4,0.7-0.6,1.3l0,0c-0.6-0.7-2-1.2-2-1.2s0.4,1.4,1,2c-0.6,0.1-1.3,0.4-1.3,0.4
				s0.5,0.7,1.1,0.8c0.6,0.1,1.8-0.4,1.8-0.4s0.6-1.1,0.6-1.7C557.2,311.8,556.5,311.3,556.5,311.3z"/>
			<path class="st17" d="M558,312.8c0,0-0.2,0.8-0.2,1.4l0,0c-0.8-0.5-2.2-0.7-2.2-0.7s0.7,1.2,1.5,1.7c-0.6,0.3-1.1,0.7-1.1,0.7
				s0.7,0.6,1.3,0.5c0.6-0.1,1.6-0.9,1.6-0.9s0.4-1.2,0.2-1.8C558.8,313.2,558,312.8,558,312.8z"/>
			<path class="st18" d="M559.8,314c0,0,0,0.8,0.2,1.4l0,0c-0.9-0.3-2.3-0.1-2.3-0.1s1,1,1.9,1.3c-0.5,0.4-0.9,1-0.9,1
				s0.8,0.4,1.4,0.1c0.6-0.2,1.3-1.3,1.3-1.3s0-1.2-0.3-1.8C560.7,314.1,559.8,314,559.8,314z"/>
			<path class="st17" d="M568.3,301.2c0,0,0.8-0.2,1.4-0.2l0,0c-0.5-0.8-0.7-2.2-0.7-2.2s1.2,0.7,1.7,1.5c0.3-0.6,0.7-1.1,0.7-1.1
				s0.6,0.7,0.5,1.3c-0.1,0.6-0.9,1.6-0.9,1.6s-1.2,0.3-1.8,0.2C568.7,302,568.3,301.2,568.3,301.2z"/>
			<path class="st18" d="M569.5,303.1c0,0,0.8,0,1.4,0.2l0,0c-0.3-0.9-0.1-2.3-0.1-2.3s1,1,1.3,1.9c0.4-0.5,1-0.9,1-0.9
				s0.4,0.8,0.1,1.4c-0.3,0.6-1.3,1.3-1.3,1.3s-1.2,0-1.8-0.3C569.6,303.9,569.5,303.1,569.5,303.1z"/>
			<path class="st17" d="M570.1,305.1c0,0,0.8,0.2,1.3,0.5l0,0c0-0.9,0.5-2.2,0.5-2.2s0.7,1.2,0.8,2.1c0.5-0.3,1.2-0.6,1.2-0.6
				s0.2,0.9-0.2,1.4c-0.4,0.5-1.6,0.9-1.6,0.9s-1.2-0.3-1.7-0.8C570,306,570.1,305.1,570.1,305.1z"/>
			<path class="st18" d="M570.2,307.3c0,0,0.7,0.4,1.2,0.8l0,0c0.2-0.9,1.1-2,1.1-2s0.4,1.4,0.2,2.3c0.6-0.2,1.3-0.3,1.3-0.3
				s-0.1,0.9-0.6,1.3c-0.5,0.4-1.8,0.5-1.8,0.5s-1.1-0.6-1.4-1.2C569.9,308.1,570.2,307.3,570.2,307.3z"/>
			<path class="st17" d="M569.7,309.4c0,0,0.6,0.6,0.9,1.1l0,0c0.4-0.8,1.6-1.7,1.6-1.7s0,1.4-0.4,2.2c0.6-0.1,1.3,0.1,1.3,0.1
				s-0.3,0.8-0.9,1.1c-0.6,0.2-1.8,0-1.8,0s-0.9-0.9-1.1-1.5C569.2,310.1,569.7,309.4,569.7,309.4z"/>
			<path class="st18" d="M568.7,311.3c0,0,0.4,0.7,0.6,1.3l0,0c0.6-0.7,2-1.2,2-1.2s-0.4,1.4-1,2c0.6,0.1,1.3,0.4,1.3,0.4
				s-0.5,0.7-1.1,0.8c-0.6,0.1-1.8-0.4-1.8-0.4s-0.6-1.1-0.6-1.7C568,311.8,568.7,311.3,568.7,311.3z"/>
			<path class="st17" d="M567.2,312.8c0,0,0.2,0.8,0.2,1.4l0,0c0.8-0.5,2.2-0.7,2.2-0.7s-0.7,1.2-1.5,1.7c0.6,0.3,1.1,0.7,1.1,0.7
				s-0.7,0.6-1.3,0.5c-0.6-0.1-1.6-0.9-1.6-0.9s-0.4-1.2-0.2-1.8C566.4,313.2,567.2,312.8,567.2,312.8z"/>
			<path class="st18" d="M565.4,314c0,0,0,0.8-0.2,1.4l0,0c0.9-0.3,2.3-0.1,2.3-0.1s-1,1-1.9,1.3c0.5,0.4,0.9,1,0.9,1
				s-0.8,0.4-1.4,0.1c-0.6-0.2-1.3-1.3-1.3-1.3s0-1.2,0.3-1.8C564.5,314.1,565.4,314,565.4,314z"/>
			<path class="st19" d="M556.9,300.7c0,0.1,0,8.3,0,9.1c0,0.8,0,1.3,0.4,1.8c0.3,0.4,0.8,0.8,1.4,0.9c0.4,0.1,1.7,0,2.2,0
				c1,0,1.2,0.2,1.6,0.7c0.4-0.7,0.9-0.7,1.9-0.7c0.5,0,1.5,0,1.9-0.1c0.5-0.1,0.9-0.4,1.2-0.8c0.5-0.6,0.5-1.4,0.5-2.2v-8.6
				c0-0.4,0-0.3,0.2-0.5l1.3-1.4l-13.9,0L556.9,300.7z"/>
			<polygon class="st20" points="561.3,304.8 561.3,299.2 555.5,299.2 556.9,300.7 557,304.8 			"/>
			<polygon class="st21" points="563.6,304.8 563.6,299.2 569.4,299.2 567.9,300.8 567.9,304.8 			"/>
			<path class="st21" d="M561.3,307.1h-4.4l0,3.5c0.2,1.5,1.3,2.1,2.4,2.1c0.7,0,0.9,0,2,0L561.3,307.1L561.3,307.1z"/>
			<path class="st20" d="M563.6,307.1h4.4l0,3.5c-0.1,1.5-1.3,2.1-2.4,2.1l-2,0V307.1z"/>
			<path class="st20" d="M559.1,294.8c-1.7,0-3.5,0.4-5,1.3c-0.7,0.4-0.8,0.6-0.5,1.2l-0.9,0.3c-0.6,0.2-1.1,0.4-1.6,0.7
				c-0.3,0.2-0.4,0.3-0.6,0.5l1.4-0.1l-0.2,0.3c-0.2,0.3-0.4,0.6-0.6,1c0.4-0.3,0.8-0.5,1.2-0.7c1-0.5,2.8-0.5,3.5-1.4
				c0.2-0.2,0.1-0.4-0.1-0.7c0.5-0.2,0.8-0.3,1.4-0.5c1.6-0.4,2.7,0.1,3.5-0.1c0.2-0.1,0.5-0.2,0.5-0.4l-0.1-0.8l2.6,0
				c0,0.5-0.4,1,0.4,1.3c0.7,0.2,2.2-0.2,3.5,0.1l1.4,0.5l-0.1,0.3l0,0.4c0.1,0.2,0.3,0.3,0.5,0.4c0.4,0.2,1,0.4,1.5,0.5
				c1.5,0.4,1.6,0.5,2.7,1.2c-0.1-0.2-0.6-1-0.8-1.3l1.4,0.1c-0.2-0.4-1-0.8-1.4-0.9l-1.7-0.6c0.2-0.3,0.3-0.5,0.1-0.8
				c-0.2-0.4-1.7-1.1-2-1.1c-0.6-0.2-1.3-0.3-1.9-0.4c-0.6-0.1-1.8-0.2-1.8-0.2c-0.1-0.1,0.2-0.5-0.2-0.9c-0.2-0.2-0.5-0.2-0.9-0.3
				c-1.3-0.1-3.1-0.1-4.4,0c-0.4,0-0.6,0.1-0.9,0.3C559.2,294.2,559.1,294.4,559.1,294.8z"/>
			<path class="st21" d="M556.8,315.3c-0.7,0.2-1.2,0.4-1.8,0.8c-0.3-0.4-0.6-1-0.9-1.3c-0.1-0.2-0.3-0.4-0.6-0.5
				c-0.4-0.2-0.5-0.1-0.8,0.1l-0.2-0.3c-0.3-0.6-0.7-0.9-1.1-1.4l-0.3-0.4l-0.1-0.1c0.1,0.5,0.3,0.9,0.3,1.5
				c-0.2-0.1-0.4-0.2-0.6-0.3c-0.2-0.1-0.6-0.2-0.8-0.1l0.2,0.2c0.4,0.4,0.7,0.9,0.9,1.4c0.2,0.6,0.6,1.3,1.1,1.7
				c0.1,0.1,0.4,0.3,0.5,0.4c0.5,0.2,0.5,0,0.7-0.1c0.4,0.7,0.6,1,1.1,1.5c0.5,0.5,1.3,0.7,2,0.5c0.3-0.1,0.5-0.2,0.7-0.3
				c0.9-0.5,0.5-0.9,0.4-1.4c0.3-0.1,1.5-0.4,1.9-0.5c1.5-0.3,4.2-0.3,5.9-0.1c0.2,0,1.9,0.5,2.1,0.6c-0.1,0.3-0.2,0.4-0.2,0.8
				c0,0.3,0.3,0.4,0.5,0.6c0.2,0.1,0.4,0.2,0.7,0.3c0.3,0.1,0.6,0.1,0.9,0c0.7-0.1,1-0.5,1.3-0.8c0.5-0.5,0.6-0.9,0.9-1.2l0.2,0.2
				l0.5-0.1c0.2-0.1,0.4-0.3,0.5-0.4c0.5-0.5,0.9-1.1,1.1-1.7c0.2-0.8,0.6-1.1,1.1-1.6c-0.7,0-1,0.2-1.4,0.5l0.2-0.8
				c0-0.2,0.2-0.5,0.2-0.7c-0.3,0.4-0.6,0.7-0.9,1.1c-0.1,0.2-0.3,0.3-0.4,0.5c-0.3,0.5-0.2,0.5-0.4,0.6c-1-0.6-1.5,0.8-2.2,1.7
				c-1.3-0.7-2.4-1-4-1.2c-0.3,0-0.6-0.1-0.9-0.1c-1.9-0.2-4-0.2-5.9,0.1C558.3,314.9,557.7,315.1,556.8,315.3z"/>
			<polygon class="st22" points="561.9,298.9 561.9,300.1 560.7,300.1 560.7,301.2 561.9,301.2 561.9,305.7 563,305.7 563,301.2 
				564.3,301.2 564.3,300.1 563,300.1 563,298.9 			"/>
			<polygon class="st23" points="558.6,306.6 563.6,303.7 566.4,307.7 561,311.1 			"/>
			<polygon class="st24" points="559.2,305.7 563.4,303.2 565.8,306.5 561.3,309.4 			"/>
		</g>
	</g>
</g>
<rect x="684.9" y="742.8" class="st25" width="5.8" height="0"/>
</svg>
