<?xml version="1.0" encoding="utf-8"?>
<!-- Generator: Adobe Illustrator 25.0.1, SVG Export Plug-In . SVG Version: 6.00 Build 0)  -->
<svg version="1.1" id="Layer_1" xmlns="http://www.w3.org/2000/svg" xmlns:xlink="http://www.w3.org/1999/xlink" x="0px" y="0px"
	 viewBox="0 0 1125 2436" style="enable-background:new 0 0 1125 2436;" xml:space="preserve">
<style type="text/css">
	.st0{fill:none;stroke:#1D1D1B;stroke-linecap:round;stroke-miterlimit:10;}
	.st1{fill:none;stroke:#000000;stroke-width:19;stroke-miterlimit:10;}
	.st2{fill:#FFFFFF;stroke:#000000;stroke-width:19;stroke-miterlimit:10;}
	.st3{fill:#42ADE2;}
	.st4{fill:#F9F9F9;}
	.st5{fill:#ED4C5C;}
	.st6{fill:#428BC1;}
	.st7{fill:#F42F4C;}
	.st8{fill:#FFE62E;}
	.st9{fill:#0065BF;}
	.st10{fill:#FFFFFF;stroke:#FFFFFF;stroke-miterlimit:10;}
	.st11{fill:#F5F5F5;}
	.st12{fill:#0085D1;}
	.st13{fill:none;stroke:#0085D1;stroke-width:9;stroke-miterlimit:10;}
	.st14{fill:none;stroke:#0085D1;stroke-width:6;stroke-linecap:round;stroke-miterlimit:10;}
</style>
<g>
	<path class="st0" d="M793,314.8"/>
	<g id="box">
		<path d="M394,228.1V173l3.9-1.9h305.3c3.9,0,7.5,0.2,10.8,0.5s6.3,0.8,8.8,1.4c2.5,0.6,4.5,1.3,6,2s2.2,1.6,2.2,2.5v45
			c0,0.9-0.7,1.7-2.1,2.5c-1.4,0.8-3.4,1.5-5.9,2.1c-2.5,0.6-5.4,1.1-8.8,1.4s-7,0.5-10.8,0.5H397.9L394,228.1z"/>
		<path class="st1" d="M163,440.7h848.3c33.6,0,61.1-27.5,61.1-61.1V230.3c0-33.6-27.5-61.1-61.1-61.1H163
			c-33.6,0-61.1,27.5-61.1,61.1v149.3C101.9,413.3,129.4,440.7,163,440.7z"/>
		<polyline class="st2" points="102,273.8 102,488.3 1072.5,488.3 1072.5,273.8 		"/>
	</g>
	<g>
		<g>
			<path d="M165.1,234.2c-2.6,1.4-5.8,2.1-9.7,2.1c-5,0-9-1.6-12-4.8c-3-3.2-4.5-7.4-4.5-12.6c0-5.6,1.7-10.1,5.1-13.6
				c3.4-3.4,7.6-5.2,12.8-5.2c3.3,0,6.1,0.5,8.3,1.4v4.4c-2.5-1.4-5.3-2.1-8.3-2.1c-4,0-7.3,1.3-9.8,4s-3.8,6.3-3.8,10.8
				c0,4.3,1.2,7.7,3.5,10.2c2.3,2.5,5.4,3.8,9.2,3.8c3.5,0,6.6-0.8,9.1-2.3L165.1,234.2L165.1,234.2z"/>
			<path d="M176.3,235.6h-4.1v-35h4.1V235.6z"/>
			<path d="M201.6,200.6v23.1h4.5v3.7h-4.5v8.2h-4v-8.2h-16.5v-3.5c1.5-1.7,3.1-3.6,4.6-5.5c1.6-2,3.1-3.9,4.5-6s2.7-4,4-6
				c1.2-2,2.2-3.9,3.1-5.8H201.6z M185.8,223.8h11.9v-17.1c-1.2,2.1-2.4,4-3.5,5.7c-1.1,1.7-2.1,3.2-3.1,4.6c-1,1.4-1.9,2.6-2.8,3.7
				C187.4,221.7,186.6,222.8,185.8,223.8z"/>
			<path d="M211.1,234.4V230c2.4,1.9,5.1,2.8,8.1,2.8c2.4,0,4.4-0.6,5.9-1.8s2.2-2.9,2.2-4.9c0-4.6-3.3-6.9-9.7-6.9h-2.9v-3.4h2.8
				c5.8,0,8.7-2.1,8.7-6.4c0-4-2.2-6-6.6-6c-2.5,0-4.8,0.8-7,2.5V202c2.3-1.3,4.9-2,8-2c2.9,0,5.3,0.8,7.1,2.3s2.6,3.6,2.6,6
				c0,4.6-2.3,7.6-7,8.9v0.1c2.5,0.2,4.5,1.1,6,2.6c1.5,1.5,2.2,3.4,2.2,5.7c0,3.1-1.1,5.7-3.4,7.6c-2.3,1.9-5.2,2.9-8.9,2.9
				C215.7,236.2,213,235.6,211.1,234.4z"/>
			<path d="M238.8,234.8v-4.3c2.4,1.6,4.8,2.3,7.3,2.3s4.5-0.7,6-2.1c1.5-1.4,2.3-3.3,2.3-5.6c0-2.3-0.8-4.1-2.3-5.4
				s-3.8-1.9-6.6-1.9c-1,0-2.8,0.1-5.5,0.3v-17.6h16.9v3.6h-13.2v10.3c1.1-0.1,2.1-0.1,3-0.1c3.7,0,6.6,0.9,8.7,2.8s3.1,4.5,3.1,7.7
				c0,3.4-1.1,6.1-3.3,8.2c-2.2,2.1-5.2,3.1-9.1,3.1C242.8,236.2,240.4,235.8,238.8,234.8z"/>
		</g>
	</g>
</g>
<g id="phone_components">
	<g id="battery">
		<path d="M1016.8,236.7c0,1.1-0.3,2.1-0.8,3.1s-1.3,1.8-2.2,2.5s-2,1.3-3.3,1.7s-2.6,0.6-4.1,0.6h-62.3c-1.4,0-2.8-0.2-4-0.6
			s-2.3-1-3.3-1.7s-1.7-1.5-2.2-2.5c-0.5-1-0.8-2-0.8-3.1v-31.4c0-1.1,0.3-2.1,0.8-3.1s1.3-1.8,2.2-2.5s2-1.3,3.3-1.7s2.6-0.6,4-0.6
			h62.3c1.4,0,2.8,0.2,4,0.6s2.4,1,3.3,1.7s1.7,1.5,2.2,2.5c0.5,0.9,0.8,2,0.8,3L1016.8,236.7L1016.8,236.7z M1006.4,240.7
			c0.7,0,1.4-0.1,2-0.3c0.6-0.2,1.2-0.5,1.6-0.9c0.5-0.4,0.8-0.8,1.1-1.2c0.3-0.5,0.4-1,0.4-1.5v-31.4c0-0.6-0.1-1.1-0.4-1.5
			c-0.3-0.5-0.7-0.9-1.1-1.2c-0.5-0.4-1-0.6-1.6-0.8c-0.6-0.2-1.3-0.3-2-0.3h-62.3c-0.7,0-1.4,0.1-2,0.3c-0.6,0.2-1.2,0.5-1.6,0.8
			c-0.5,0.4-0.8,0.8-1.1,1.2c-0.3,0.5-0.4,1-0.4,1.5v31.4c0,0.6,0.1,1.1,0.4,1.5c0.3,0.5,0.6,0.9,1.1,1.2c0.5,0.4,1,0.6,1.6,0.9
			c0.6,0.2,1.3,0.3,2,0.3H1006.4z"/>
		<path d="M938.9,241.5v-39.7l0.6-1.4h51c0.6,0,1.3,0.1,1.8,0.4c0.6,0.2,1,0.6,1.5,1s0.8,0.9,1,1.5s0.4,1.2,0.4,1.8v32.4
			c0,0.6-0.1,1.3-0.3,1.8c-0.2,0.6-0.6,1.1-1,1.5s-0.9,0.8-1.5,1s-1.2,0.4-1.8,0.4h-51L938.9,241.5z"/>
		<path d="M1016.8,226.8v-13c0-2.5,2-4.5,4.5-4.5l0,0c2.5,0,4.5,2,4.5,4.5v13c0,2.5-2,4.5-4.5,4.5l0,0
			C1018.8,231.3,1016.8,229.2,1016.8,226.8z"/>
	</g>
	<g id="wifi">
		<g>
			<path d="M843.1,211.2c-0.3,2,0.1,4.1,1.1,5.3c1.3,1.6,2.9,1.1,3.1,1c2-3.8,10.8-20,23.6-25.4c3.6-1.5,7.4-2.3,11.3-2.3
				c14.4,0,27.2,10.9,34.8,27.6c0.2,0.1,1.8,0.7,3.1-0.9c1-1.3,1.5-3.4,1.1-5.4c-2.6-4.9-12-21.4-26-27.4c-4.1-1.8-8.5-2.7-13-2.7
				C866.1,181,851.9,192.9,843.1,211.2z"/>
			<path d="M882.2,208.6c11,0,20.6,9,25.8,22.4c1.4,1,3,0.5,4-1.2c0.8-1.4,0.9-3.5,0.3-5.2c-1.4-2.8-9.2-18-20.5-22.8
				c-3.1-1.3-6.3-2-9.6-2c-12.6,0-23.7,9.9-30.1,24.9c0,0.1-0.5,3,1,5.1c1.4,2,3.2,1.4,3.3,1.3C857.2,229.2,864,208.6,882.2,208.6z"
				/>
			<path d="M882.2,227c7.7,0,14.2,7.4,16.7,17.7c1.6,1,3.4,0.2,4.3-1.7c1-2.2,0.2-4.9,0.2-5c-1-2.9-3.4-9.4-8.6-14.3
				c-3.7-3.5-8-5.5-12.6-5.5c-9.3,0-17.3,8.1-21.2,19.9c-0.8,1.9-0.7,4.3,0.2,5.8c1,1.8,2.8,2.2,4.2,0.9
				C868.8,234.2,875.3,227,882.2,227z"/>
			<path class="st3" d="M1006,280"/>
			<path d="M861.2,244"/>
			<path d="M921.4,243"/>
			<path d="M918.8,247.8"/>
		</g>
	</g>
	<g id="signal">
		<g>
			<path d="M787.4,237.5v-33.2c0-9.5,18.8-9.5,18.8,0v33.2C806.2,247,787.4,247,787.4,237.5z"/>
			<path d="M765.2,237.3v-27.4c0-9.1,18.8-9.1,18.8,0v27.4C783.9,246.4,765.2,246.4,765.2,237.3z"/>
			<path d="M740.9,238.1v-18.3c0-7.3,18.8-7.3,18.8,0v18.3C759.7,245.4,740.9,245.4,740.9,238.1z"/>
			<path d="M809.2,235.9V198c0-10.8,18.8-10.8,18.8,0v37.9C827.9,246.7,809.2,246.7,809.2,235.9z"/>
		</g>
	</g>
</g>
<g id="FlagDenisa">
	<g id="Czech">
		<path class="st4" d="M515.2,285.1v39.4h95.2c0-30.8-25-55.8-55.8-55.8C539.2,268.8,525.3,275,515.2,285.1L515.2,285.1z"/>
		<path class="st5" d="M515.2,324.5V364l0,0c10.1,10.1,24,16.3,39.4,16.3c30.8,0,55.8-25,55.8-55.8L515.2,324.5L515.2,324.5z"/>
		<path class="st6" d="M515.2,285.1c-10.1,10.1-16.3,24-16.3,39.4s6.2,29.3,16.3,39.4l39.4-39.4L515.2,285.1z"/>
	</g>
	<g id="Vietnam">
		<path class="st7" d="M556.6,268.4c30.8,0,55.8,25,55.8,55.8s-25,55.8-55.8,55.8"/>
		<polygon class="st8" points="556.6,337.1 575,350.2 568.1,328.9 586.4,315.4 563.7,315.4 556.6,294.4 549.8,315.4 526.9,315.4 
			545.2,328.9 538.2,350.2 		"/>
	</g>
</g>

<g id="back">
	<g>
		<path class="st12" d="M198.6,315.8c-11.9,8.7-23.3,18.2-33.9,28.5c-3.4,3.3-1.5,8.6,2.6,10c11.7,4,22.1,11.9,31.4,19.9
			c5.8,5,14.4-3.5,8.5-8.5c-10.9-9.4-22.9-18.3-36.7-23c0.9,3.3,1.8,6.7,2.6,10c9.9-9.6,20.3-18.5,31.4-26.6
			C210.9,321.7,204.9,311.3,198.6,315.8L198.6,315.8z"/>
	</g>
</g>
<g id="info">
	<ellipse id="circle" class="st13" cx="900.6" cy="345.9" rx="38.6" ry="35.9"/>
	<line id="I" class="st14" x1="900.9" y1="341.3" x2="900.9" y2="360.7"/>
	<ellipse id="dot" class="st12" cx="900.5" cy="329.3" rx="5.3" ry="4.9"/>
</g>
<g>
	<g>
		<path d="M483.8,427v-34.3h9.5c12.1,0,18.1,5.6,18.1,16.7c0,5.3-1.7,9.6-5,12.8c-3.4,3.2-7.9,4.8-13.5,4.8H483.8z M487.8,396.3v27
			h5.1c4.5,0,8-1.2,10.5-3.6c2.5-2.4,3.8-5.8,3.8-10.2c0-8.8-4.7-13.2-14-13.2H487.8z"/>
		<path d="M536.3,427h-18.2v-34.3h17.4v3.6h-13.4v11.4h12.4v3.6h-12.4v12h14.2V427z"/>
		<path d="M570.6,427h-4.9L548,399.6c-0.4-0.7-0.8-1.4-1.1-2.2h-0.1c0.1,0.7,0.2,2.3,0.2,4.7V427h-4v-34.3h5.2l17.2,26.9
			c0.7,1.1,1.2,1.9,1.4,2.3h0.1c-0.2-1-0.2-2.7-0.2-5v-24.2h4V427z"/>
		<path d="M583.6,427h-4v-34.3h4V427z"/>
		<path d="M591,425.6v-4.7c0.5,0.5,1.2,0.9,2,1.3s1.6,0.7,2.4,1c0.8,0.3,1.7,0.5,2.5,0.6s1.6,0.2,2.3,0.2c2.5,0,4.3-0.5,5.5-1.4
			c1.2-0.9,1.8-2.2,1.8-4c0-0.9-0.2-1.7-0.6-2.4c-0.4-0.7-1-1.3-1.7-1.9c-0.7-0.6-1.6-1.1-2.5-1.6c-1-0.5-2-1.1-3.2-1.6
			c-1.2-0.6-2.3-1.2-3.3-1.8c-1-0.6-1.9-1.3-2.7-2.1c-0.8-0.7-1.4-1.6-1.8-2.5c-0.4-0.9-0.7-2.1-0.7-3.3c0-1.6,0.3-2.9,1-4.1
			c0.7-1.2,1.6-2.1,2.7-2.9c1.1-0.7,2.4-1.3,3.8-1.7c1.4-0.4,2.9-0.6,4.4-0.6c3.4,0,5.8,0.4,7.4,1.2v4.5c-2-1.4-4.6-2.1-7.8-2.1
			c-0.9,0-1.8,0.1-2.6,0.3c-0.9,0.2-1.7,0.5-2.3,0.9c-0.7,0.4-1.2,0.9-1.7,1.6c-0.4,0.7-0.6,1.5-0.6,2.4c0,0.9,0.2,1.6,0.5,2.3
			c0.3,0.6,0.8,1.2,1.4,1.7s1.4,1,2.3,1.5c0.9,0.5,2,1,3.2,1.6c1.2,0.6,2.4,1.2,3.5,1.9s2.1,1.4,2.9,2.2c0.8,0.8,1.5,1.7,2,2.7
			c0.5,1,0.7,2.1,0.7,3.4c0,1.7-0.3,3.1-1,4.3c-0.7,1.2-1.6,2.1-2.7,2.9c-1.1,0.7-2.4,1.3-3.9,1.6c-1.5,0.3-3,0.5-4.6,0.5
			c-0.5,0-1.2,0-2-0.1c-0.8-0.1-1.6-0.2-2.4-0.4c-0.8-0.2-1.6-0.4-2.4-0.6C592,426.2,591.4,425.9,591,425.6z"/>
		<path d="M645.2,427h-4.5l-3.6-9.6h-14.5l-3.4,9.6h-4.5l13.2-34.3h4.2L645.2,427z M635.8,413.7l-5.4-14.6c-0.2-0.5-0.4-1.2-0.5-2.3
			h-0.1c-0.2,1-0.3,1.7-0.5,2.3l-5.3,14.6H635.8z"/>
	</g>
</g>
</svg>
